<?xml version="1.0" encoding="utf-8"?>
<!-- Generator: Adobe Illustrator 24.3.0, SVG Export Plug-In . SVG Version: 6.00 Build 0)  -->
<svg version="1.1" id="Capa_1" xmlns="http://www.w3.org/2000/svg" xmlns:xlink="http://www.w3.org/1999/xlink" x="0px" y="0px"
	 viewBox="0 0 600 141" style="enable-background:new 0 0 600 141;" xml:space="preserve">
<style type="text/css">
	.st0{fill:#031D5E;}
</style>
<g>
	<g>
		<path class="st0" d="M293.2,108.9c0-2.6-1.8-4.1-4.9-4.1h-4.7V117h1.4v-3.9h3.3c0.3,0,0.5,0,0.8,0l2.6,3.9h1.6l-2.9-4.2
			C292.2,112.3,293.2,110.9,293.2,108.9z M288.3,111.8h-3.3V106h3.3c2.2,0,3.5,1,3.5,2.9C291.8,110.8,290.6,111.8,288.3,111.8z"/>
		<path class="st0" d="M301.6,107.7c-2.7,0-4.6,1.9-4.6,4.7c0,2.8,1.9,4.7,4.6,4.7c1.5,0,2.8-0.6,3.7-1.5l-0.8-0.8
			c-0.7,0.8-1.7,1.2-2.9,1.2c-1.8,0-3.1-1.2-3.4-3h7.6C306,109.8,304.6,107.7,301.6,107.7z M298.3,111.8c0.2-1.8,1.5-3,3.2-3
			c1.8,0,3,1.2,3.1,3H298.3z"/>
		<path class="st0" d="M313.5,107.7c-1.6,0-2.6,0.5-3.8,1.2l0.6,1c1-0.7,1.9-1.1,2.9-1.1c1.6,0,2.5,0.8,2.5,2.2v0.6h-3
			c-2.2,0-3.5,1-3.5,2.7c0,1.6,1.2,2.8,3.1,2.8c1.5,0,2.7-0.5,3.4-1.5v1.4h1.3l0-6.1C317.1,108.9,315.8,107.7,313.5,107.7z
			 M315.7,113.8c-0.3,1.3-1.5,2.1-3.1,2.1c-1.3,0-2.1-0.7-2.1-1.7c0-1,0.8-1.5,2.4-1.5h2.9V113.8z"/>
		<path class="st0" d="M325.6,115.9c-1.9,0-3.3-1.4-3.3-3.5c0-2,1.4-3.4,3.3-3.4c1.1,0,2.1,0.4,2.8,1.1l0.8-0.9
			c-0.8-0.9-2.1-1.4-3.6-1.4c-2.7,0-4.6,1.9-4.6,4.7c0,2.8,1.9,4.7,4.6,4.7c1.6,0,2.9-0.6,3.7-1.6l-0.8-0.8
			C327.8,115.4,326.8,115.9,325.6,115.9z"/>
		<path class="st0" d="M334.9,109.8v-2.1h-1.4v9.2h1.4v-4.9c0.2-1.9,1.4-3.1,3.3-3v-1.3C336.6,107.8,335.5,108.5,334.9,109.8z"/>
		<path class="st0" d="M345.5,107.7c-2.7,0-4.6,1.9-4.6,4.7c0,2.8,1.9,4.7,4.6,4.7c1.5,0,2.8-0.6,3.7-1.5l-0.8-0.8
			c-0.7,0.8-1.7,1.2-2.9,1.2c-1.8,0-3.1-1.2-3.4-3h7.6C349.9,109.8,348.5,107.7,345.5,107.7z M342.2,111.8c0.2-1.8,1.5-3,3.2-3
			c1.8,0,3,1.2,3.1,3H342.2z"/>
		<path class="st0" d="M361,109.8c-0.7-1.3-2-2.1-3.6-2.1c-2.6,0-4.4,1.9-4.4,4.7c0,2.8,1.8,4.7,4.5,4.7c1.7,0,2.9-0.8,3.6-2.1v2
			h1.4v-13H361V109.8z M357.7,115.9c-2,0-3.4-1.5-3.4-3.5c0-2,1.4-3.5,3.4-3.5c1.9,0,3.3,1.5,3.3,3.5
			C361,114.5,359.7,115.9,357.7,115.9z"/>
		<path class="st0" d="M368.3,104.2c-0.5,0-0.9,0.4-0.9,0.9c0,0.5,0.4,0.9,0.9,0.9c0.5,0,0.9-0.4,0.9-0.9
			C369.2,104.6,368.8,104.2,368.3,104.2z"/>
		<rect x="367.6" y="107.8" class="st0" width="1.4" height="9.2"/>
		<path class="st0" d="M377,115.8c-0.8,0-1.2-0.5-1.2-1.6v-5.1h2.9v-1.1h-2.9v-2.4h-1.4v2.4H373v1.1h1.3v5.3c0,1.8,1,2.6,2.4,2.6
			c0.7,0,1.4-0.2,2.1-0.7l-0.4-1.1C377.9,115.6,377.4,115.8,377,115.8z"/>
		<path class="st0" d="M386.2,107.7c-1.6,0-2.6,0.5-3.8,1.2l0.6,1c1-0.7,1.9-1.1,2.9-1.1c1.6,0,2.5,0.8,2.5,2.2v0.6h-3
			c-2.2,0-3.5,1-3.5,2.7c0,1.6,1.2,2.8,3.1,2.8c1.5,0,2.7-0.5,3.4-1.5v1.4h1.3l0-6.1C389.7,108.9,388.4,107.7,386.2,107.7z
			 M388.4,113.8c-0.4,1.3-1.5,2.1-3.1,2.1c-1.3,0-2.1-0.7-2.1-1.7c0-1,0.8-1.5,2.4-1.5h2.9V113.8z"/>
		<path class="st0" d="M401.7,109.8c-0.7-1.3-2-2.1-3.6-2.1c-2.6,0-4.4,1.9-4.4,4.7c0,2.8,1.8,4.7,4.5,4.7c1.7,0,2.9-0.8,3.6-2.1v2
			h1.4v-13h-1.4V109.8z M398.4,115.9c-2,0-3.4-1.5-3.4-3.5c0-2,1.4-3.5,3.4-3.5c1.9,0,3.3,1.5,3.3,3.5
			C401.7,114.5,400.3,115.9,398.4,115.9z"/>
		<path class="st0" d="M411.7,107.7c-1.6,0-2.6,0.5-3.8,1.2l0.6,1c1-0.7,1.9-1.1,2.9-1.1c1.6,0,2.5,0.8,2.5,2.2v0.6h-3
			c-2.2,0-3.5,1-3.5,2.7c0,1.6,1.2,2.8,3.1,2.8c1.5,0,2.7-0.5,3.4-1.5v1.4h1.3l0-6.1C415.3,108.9,414,107.7,411.7,107.7z M414,113.8
			c-0.4,1.3-1.5,2.1-3.1,2.1c-1.3,0-2.1-0.7-2.1-1.7c0-1,0.8-1.5,2.4-1.5h2.9V113.8z"/>
		<path class="st0" d="M430.8,107.7c-2.7,0-4.6,1.9-4.6,4.7c0,2.8,1.9,4.7,4.6,4.7c1.5,0,2.8-0.6,3.7-1.5l-0.8-0.8
			c-0.7,0.8-1.7,1.2-2.9,1.2c-1.8,0-3.1-1.2-3.4-3h7.6C435.3,109.8,433.8,107.7,430.8,107.7z M427.6,111.8c0.2-1.8,1.5-3,3.2-3
			c1.8,0,3,1.2,3.1,3H427.6z"/>
		<path class="st0" d="M444.2,107.7c-1.7,0-2.9,0.7-3.6,2.1v-2h-1.4v9.2h1.4v-5c0.2-1.8,1.3-3,3.1-3c1.6,0,2.6,1,2.6,2.6v5.3h1.4
			v-5.7C447.7,109.1,446.4,107.7,444.2,107.7z"/>
		<path class="st0" d="M463.5,104.7L458,117h1.5l1.4-3.1h6.7l1.4,3.1h1.5l-5.5-12.3H463.5z M461.4,112.6l2.8-6.3l2.8,6.3H461.4z"/>
		<rect x="474" y="104" class="st0" width="1.4" height="13"/>
		<path class="st0" d="M483.5,115.8c-0.8,0-1.2-0.5-1.2-1.6v-5.1h2.9v-1.1h-2.9v-2.4h-1.4v2.4h-1.3v1.1h1.3v5.3c0,1.8,1,2.6,2.4,2.6
			c0.7,0,1.4-0.2,2.1-0.7l-0.4-1.1C484.5,115.6,484,115.8,483.5,115.8z"/>
		<path class="st0" d="M492.7,107.7c-1.6,0-2.6,0.5-3.8,1.2l0.6,1c1-0.7,1.9-1.1,2.9-1.1c1.6,0,2.5,0.8,2.5,2.2v0.6h-3
			c-2.2,0-3.5,1-3.5,2.7c0,1.6,1.2,2.8,3.1,2.8c1.5,0,2.7-0.5,3.4-1.5v1.4h1.3l0-6.1C496.3,108.9,495,107.7,492.7,107.7z
			 M494.9,113.8c-0.4,1.3-1.5,2.1-3.1,2.1c-1.3,0-2.1-0.7-2.1-1.7c0-1,0.8-1.5,2.4-1.5h2.9V113.8z"/>
		<path class="st0" d="M513.6,115.8c-2.8,0-5-2.2-5-4.9c0-2.7,2.2-4.9,5-4.9c1.4,0,2.7,0.6,3.6,1.5l0.8-1c-1.2-1.1-2.8-1.8-4.5-1.8
			c-3.6,0-6.4,2.7-6.4,6.2c0,3.5,2.8,6.2,6.4,6.2c1.7,0,3.4-0.7,4.6-1.9l-0.9-0.9C516.3,115.2,515,115.8,513.6,115.8z"/>
		<path class="st0" d="M525.7,107.7c-1.6,0-2.6,0.5-3.8,1.2l0.6,1c1-0.7,1.9-1.1,2.9-1.1c1.6,0,2.5,0.8,2.5,2.2v0.6h-3
			c-2.2,0-3.5,1-3.5,2.7c0,1.6,1.2,2.8,3.1,2.8c1.5,0,2.7-0.5,3.4-1.5v1.4h1.3l0-6.1C529.3,108.9,528,107.7,525.7,107.7z
			 M527.9,113.8c-0.4,1.3-1.5,2.1-3.1,2.1c-1.3,0-2.1-0.7-2.1-1.7c0-1,0.8-1.5,2.4-1.5h2.9V113.8z"/>
		<rect x="534.2" y="104" class="st0" width="1.4" height="13"/>
		<path class="st0" d="M541.4,104.2c-0.5,0-0.9,0.4-0.9,0.9c0,0.5,0.4,0.9,0.9,0.9c0.5,0,0.9-0.4,0.9-0.9
			C542.3,104.6,541.9,104.2,541.4,104.2z"/>
		<rect x="540.7" y="107.8" class="st0" width="1.4" height="9.2"/>
		<path class="st0" d="M554.3,109.8c-0.7-1.3-2-2.1-3.6-2.1c-2.6,0-4.4,1.9-4.4,4.7c0,2.8,1.8,4.7,4.5,4.7c1.7,0,2.9-0.8,3.6-2.1v2
			h1.4v-13h-1.4V109.8z M551,115.9c-2,0-3.4-1.5-3.4-3.5c0-2,1.4-3.5,3.4-3.5c2,0,3.3,1.5,3.3,3.5
			C554.3,114.5,552.9,115.9,551,115.9z"/>
		<path class="st0" d="M564.4,107.7c-1.6,0-2.6,0.5-3.8,1.2l0.6,1c1-0.7,1.9-1.1,2.9-1.1c1.6,0,2.5,0.8,2.5,2.2v0.6h-3
			c-2.2,0-3.5,1-3.5,2.7c0,1.6,1.2,2.8,3.1,2.8c1.5,0,2.7-0.5,3.4-1.5v1.4h1.3l0-6.1C567.9,108.9,566.7,107.7,564.4,107.7z
			 M566.6,113.8c-0.4,1.3-1.5,2.1-3.1,2.1c-1.3,0-2.1-0.7-2.1-1.7c0-1,0.8-1.5,2.4-1.5h2.9V113.8z"/>
		<path class="st0" d="M579.9,104v5.8c-0.7-1.3-2-2.1-3.6-2.1c-2.6,0-4.4,1.9-4.4,4.7c0,2.8,1.8,4.7,4.5,4.7c1.7,0,2.9-0.8,3.6-2.1
			v2h1.4v-13H579.9z M576.6,115.9c-2,0-3.4-1.5-3.4-3.5c0-2,1.4-3.5,3.4-3.5c1.9,0,3.3,1.5,3.3,3.5
			C579.9,114.5,578.5,115.9,576.6,115.9z"/>
	</g>
	<g>
		<path class="st0" d="M303.4,78.8c0,4.4-2.6,7-6.4,7c-3.9,0-6.7-2.7-6.7-7V59.3h-8.6v19.5c0,8.9,5.9,14.5,15.2,14.5
			c9.2,0,15-5.6,15-14.5V59.3h-8.6V78.8z"/>
		<path class="st0" d="M334.4,66.6c-3.7,0-6.6,1.6-8.4,4.6V67h-8.3v25.9h8.3V79.2c0.3-2.9,2.2-4.9,5-4.9c2.6,0,4.3,1.8,4.3,4.7v13.9
			h8.3V76.6C343.6,70.5,339.9,66.6,334.4,66.6z"/>
		<rect x="349.3" y="67" class="st0" width="8.3" height="26"/>
		<path class="st0" d="M353.4,63.6c2.2,0,3.8-1.6,3.8-3.9c0-2.3-1.6-3.9-3.8-3.9c-2.2,0-3.8,1.6-3.8,3.9
			C349.6,61.9,351.2,63.6,353.4,63.6z"/>
		<polygon class="st0" points="379.7,67 374.3,85 369,67 360.5,67 369.9,92.9 378.5,92.9 388,67 		"/>
		<path class="st0" d="M401.1,66.7c-7.9,0-13.2,5.3-13.2,13.4c0,7.9,5.1,13.1,13.4,13.1c4.7,0,8.5-1.6,11-4.6l-4.4-4.5
			c-1.7,1.7-3.8,2.6-5.9,2.6c-2.9,0-5-1.6-5.8-4.6h17.6C414.5,72.8,410,66.7,401.1,66.7z M396.1,77.7c0.6-3,2.3-5,5.1-5
			c2.8,0,4.7,2,4.7,5H396.1z"/>
		<path class="st0" d="M426.5,71.3V67h-8.3v26h8.3V79.7c0.4-3.6,3.5-5.7,8.1-5.2v-7.8C431.1,66.6,428.3,68.3,426.5,71.3z"/>
		<path class="st0" d="M447.2,72.5c2.1,0,4.9,1,8,2.6l2.8-5.6c-3.2-2-6.9-3-10.5-3c-5.9,0-10.4,3-10.4,8.4c0,9,13.1,7.2,13.1,10.7
			c0,1.1-1.1,1.6-2.7,1.6c-2.8,0-6.1-1.2-9-3.2l-2.6,5.5c3.1,2.4,7.2,3.7,11.4,3.7c6.2,0,10.7-3,10.7-8.3c0-9-13.2-7.4-13.2-10.8
			C444.8,73.1,445.8,72.5,447.2,72.5z"/>
		<rect x="462.5" y="67" class="st0" width="8.3" height="26"/>
		<path class="st0" d="M466.7,63.6c2.2,0,3.8-1.6,3.8-3.9c0-2.3-1.6-3.9-3.8-3.9c-2.2,0-3.8,1.6-3.8,3.9
			C462.9,61.9,464.5,63.6,466.7,63.6z"/>
		<path class="st0" d="M488.9,86.4c-1.4,0-2.3-0.8-2.3-2.7v-9.8h6.5v-5.7h-6.5V61h-8.3v7.2h-3.5v5.7h3.5V85c0,5.4,3.6,8.3,8.5,8.3
			c2.5,0,5-0.6,6.8-1.7l-1.6-6C490.8,86.1,489.8,86.4,488.9,86.4z"/>
		<path class="st0" d="M509,66.6c-4.2,0-7.8,1-11.8,2.8l2.3,5.8c2.7-1.3,5.5-2.1,7.6-2.1c3.2,0,4.8,1.4,4.8,3.9v0.3h-6.6
			c-6.3,0.1-9.7,2.9-9.7,7.9c0,4.8,3.2,8.1,8.7,8.1c3.4,0,6-1.2,7.6-3.3v2.9h8.2V76C520.1,70.1,516,66.6,509,66.6z M511.9,84.2
			c-0.5,2-2.6,3.4-5.1,3.4c-2.2,0-3.4-1.2-3.4-2.9c0-1.8,1.2-2.7,3.5-2.7h5V84.2z"/>
		<path class="st0" d="M534.1,71.3V67h-8.3v26h8.3V79.7c0.4-3.6,3.5-5.7,8.1-5.2v-7.8C538.6,66.6,535.8,68.3,534.1,71.3z"/>
		<path class="st0" d="M550,63.6c2.2,0,3.8-1.6,3.8-3.9c0-2.3-1.6-3.9-3.8-3.9c-2.2,0-3.8,1.6-3.8,3.9
			C546.2,61.9,547.8,63.6,550,63.6z"/>
		<rect x="545.9" y="67" class="st0" width="8.3" height="26"/>
		<path class="st0" d="M571.9,66.6c-4.2,0-7.8,1-11.8,2.8l2.3,5.8c2.7-1.3,5.5-2.1,7.6-2.1c3.2,0,4.8,1.4,4.8,3.9v0.3h-6.6
			c-6.3,0.1-9.7,2.9-9.7,7.9c0,4.8,3.2,8.1,8.7,8.1c3.4,0,6-1.2,7.6-3.3v2.9h8.2V76C583,70.1,578.9,66.6,571.9,66.6z M574.8,84.2
			c-0.5,2-2.6,3.4-5.1,3.4c-2.2,0-3.4-1.2-3.4-2.9c0-1.8,1.2-2.7,3.5-2.7h5V84.2z"/>
	</g>
	<g>
		<rect x="283.9" y="31.9" class="st0" width="2.2" height="18.9"/>
		<path class="st0" d="M315.3,36.5c-2.6,0-4.5,1.1-5.5,3.2v-3.1h-2.1v14.2h2.1v-7.6c0.2-2.8,2-4.6,4.8-4.6c2.5,0,4,1.5,4,4.1v8.2
			h2.1v-8.8C320.7,38.6,318.7,36.5,315.3,36.5z"/>
		<path class="st0" d="M342.4,40.2c0-1.4,1.2-1.9,2.8-1.9c1.3,0,2.8,0.4,3.9,1.1l0.8-1.6c-1.2-0.8-2.8-1.3-4.5-1.3
			c-2.6,0-4.9,1.2-4.9,3.9c0,5,7.9,3.3,7.9,6.7c0,1.4-1.4,2.1-3.1,2.1c-1.7,0-3.5-0.7-4.7-1.8l-0.8,1.5c1.4,1.3,3.4,2,5.5,2
			c2.7,0,5.2-1.2,5.2-4C350.3,41.8,342.4,43.4,342.4,40.2z"/>
		<path class="st0" d="M374.4,48.9c-1.2,0-1.9-0.7-1.9-2.4v-7.8h4.5V37h-4.5v-3.7h-2.1V37h-2.1v1.6h2.1v8.2c0,2.8,1.5,4,3.6,4
			c1.1,0,2.2-0.4,3.2-1.1l-0.6-1.6C375.9,48.7,375.2,48.9,374.4,48.9z"/>
		<rect x="396.7" y="36.6" class="st0" width="2.1" height="14.2"/>
		<path class="st0" d="M397.7,31.1c-0.8,0-1.4,0.6-1.4,1.4c0,0.8,0.6,1.4,1.4,1.4c0.8,0,1.4-0.6,1.4-1.4
			C399.1,31.7,398.5,31.1,397.7,31.1z"/>
		<path class="st0" d="M424.6,48.9c-1.2,0-1.9-0.7-1.9-2.4v-7.8h4.5V37h-4.5v-3.7h-2.1V37h-2.1v1.6h2.1v8.2c0,2.8,1.5,4,3.6,4
			c1.1,0,2.2-0.4,3.2-1.1l-0.6-1.6C426.1,48.7,425.3,48.9,424.6,48.9z"/>
		<path class="st0" d="M457.1,43.6c0,3.1-1.7,5.2-4.7,5.3c-2.5,0-3.9-1.5-3.9-4v-8.2h-2.1v8.7c0,3.4,2,5.5,5.3,5.5
			c2.6,0,4.5-1.1,5.4-3.3v3.2h2.1V36.6h-2.1V43.6z"/>
		<path class="st0" d="M486.2,49c-2.9,0-5-2.2-5-5.3c0-3.1,2.1-5.3,5-5.3c1.7,0,3.2,0.6,4.2,1.7l1.2-1.5c-1.3-1.3-3.2-2.1-5.5-2.1
			c-4.1,0-7.1,3-7.1,7.2c0,4.2,2.9,7.2,7.1,7.2c2.5,0,4.4-0.9,5.7-2.5l-1.2-1.2C489.6,48.4,488,49,486.2,49z"/>
		<path class="st0" d="M512.8,31.1c-0.8,0-1.4,0.6-1.4,1.4c0,0.8,0.6,1.4,1.4,1.4c0.8,0,1.4-0.6,1.4-1.4
			C514.2,31.7,513.6,31.1,512.8,31.1z"/>
		<rect x="511.8" y="36.6" class="st0" width="2.1" height="14.2"/>
		<polygon class="st0" points="544.9,31.5 542.8,30.6 539.6,34.2 541.6,34.2 		"/>
		<path class="st0" d="M541,36.5c-4.2,0-7.2,2.9-7.2,7.2c0,4.2,3,7.2,7.2,7.2c4.2,0,7.2-3,7.2-7.2C548.2,39.5,545.2,36.5,541,36.5z
			 M541,49.1c-3,0-5.1-2.2-5.1-5.3c0-3.1,2.1-5.3,5.1-5.3c3,0,5.1,2.2,5.1,5.3C546.1,46.9,544,49.1,541,49.1z"/>
		<path class="st0" d="M575.7,36.5c-2.6,0-4.5,1.1-5.5,3.2v-3.1h-2.1v14.2h2.1v-7.6c0.2-2.8,2-4.6,4.8-4.6c2.5,0,4,1.5,4,4.1v8.2
			h2.1v-8.8C581.1,38.6,579.1,36.5,575.7,36.5z"/>
	</g>
	<g>
		<path class="st0" d="M205.5,29.8c-26.3-3.7-54.4-0.2-81.2,6.2c-6.5,1.7-13.2,3.5-19.7,5.5c1.2-1.3,2.1-2.7,2.7-4.2
			c1.9-5.1-0.9-9-6-9h-1.1c-4.8,0.4-10,4.3-11.8,9c-1.9,4.9,0.8,8.9,6,8.9c2,0,4-0.5,5.9-1.5c1.6-0.8,3-1.9,4.2-3.1
			c7-0.6,14.1-0.9,21.5-0.8c23.5,0,44.7,3.1,60.8,8.2h0l-8.5,12.2c-2,2.8-4,5.7-5.3,8.1c-1.3,2.3-2.8,4.5-3.9,6.7h-0.3
			c0.8-3.3,1.5-7.7,1.9-12.8c0.3-0.9,0.1-1.5,0.3-1.9l0.9-12.4L152.5,49l-17.1,31l-10.5,18.8l10.5,0.1l7.6,0l10-19.7
			c0.5-1.5,1.6-3.2,2.1-4.7c0.5-1.2,1.3-2.8,1.9-4.4c-0.3,1.3-0.5,3.1-0.7,4.7c-0.4,1.5-0.4,3.3-0.5,5.1l-1.5,19l11.2,0.1l13.2-19.2
			c1.1-1.6,2.4-3.5,3.5-5.2c0.8-1.5,1.9-3.2,2.5-4.4c-0.5,1.5-0.7,3.2-1.2,4.7c-0.5,1.2-0.9,2.9-1.6,4.4L176.9,99l18.2,0l9-42.3
			c7,4.2,11.5,9,12.5,14.2c6.1-5.2,11.2-11.2,13.4-17.7c0.4-1.6,0.7-3.1,0.7-4.4v-0.5C230.5,36.2,216,31.8,205.5,29.8z"/>
		<path class="st0" d="M43.8,92.3h4.1l2.3-6.1l-6.4,0L42,91.1c-6-3.9-9.7-8.3-10.7-13c-6.1,5.2-11.1,11.1-13.3,17.6
			c-0.4,1.6-0.7,3-0.7,4.4v0.5c0.3,12,14.7,16.4,25.1,18.4c26.2,3.7,54.1,0.2,80.7-6.1c6.7-1.7,13.6-3.6,20.3-5.7
			c-7.1,0.7-14.4,0.9-21.9,0.8C88.3,107.9,59.6,101.6,43.8,92.3z"/>
		<polygon class="st0" points="70.4,67.7 72.6,61.3 68.2,61.3 66.2,61.3 63.9,67.5 68.2,67.5 		"/>
		<polygon class="st0" points="97.6,98.8 100.2,98.8 116.5,98.8 129.1,65.2 135.4,65.2 139.7,65.2 145.8,49 135.4,49 106.1,48.9 
			100.2,64.5 99.9,65.1 100.2,65.1 110.4,65.3 100.2,92 		"/>
		<polygon class="st0" points="61.2,74.3 61.5,73.7 61.2,73.7 54.9,73.7 52.7,79.9 59.1,80 		"/>
		<polygon class="st0" points="61.1,92.4 61.2,92.4 67.5,92.4 65.1,98.7 68.3,98.7 83,98.6 83.8,98.6 100.2,55.5 102.7,48.9 
			100.2,48.9 83.9,48.8 83,51.3 79.1,61.4 83,61.4 85.8,61.4 83.3,67.5 83,67.5 76.9,67.5 74.5,73.6 68.2,73.6 68.1,73.6 65.7,80 
			68.2,80 72.1,80 69.7,86.2 68.2,86.2 63.5,86 61.2,91.9 		"/>
	</g>
	<g>
		<rect x="257.5" y="31.4" class="st0" width="1.3" height="85.4"/>
	</g>
</g>
</svg>
