<?xml version="1.0" encoding="utf-8"?>
<!-- Generator: Adobe Illustrator 19.2.1, SVG Export Plug-In . SVG Version: 6.00 Build 0)  -->
<svg version="1.1" id="layer" xmlns="http://www.w3.org/2000/svg" xmlns:xlink="http://www.w3.org/1999/xlink" x="0px" y="0px"
	 viewBox="0 0 652 652" style="enable-background:new 0 0 652 652;" xml:space="preserve">
<style type="text/css">
	.st0{fill:#FCB823;}
	.st1{fill:#898B8E;}
</style>
<path class="st0" d="M413.7,367.5V252.8c0-39.2,40.9-47.5,70.2-36.3v21.9c-20.2-8.3-42.9-6.2-42.9,19h32.6v21.9H441v87.9
	L413.7,367.5z M543.7,240.4h20.2l4.1,16.9h25.2v21.9h-22.3V330c0,10.3,4.5,15.3,13.2,15.3h14v21.9h-27.2c-18.2,0-27.6-9.9-27.6-29.3
	v-97.4H543.7z M495,257.3h27.6v109.8H495V257.3z M495,217.7h27.6v22.7H495V217.7z M621.7,367.1c-24.3,38.4-66.9,63.5-115.5,63.5
	c-48.7,0-91.2-25.2-115.5-63.5c28.5,26.4,69.7,42.5,115.5,42.5C552,410,593.2,393.5,621.7,367.1"/>
<path class="st1" d="M25,341.9v-14.9c7.8,3.3,17.3,5,27.6,5c7.8,0,11.6-2.5,11.6-7.4c0-4.5-2.5-7-7.8-7H43.6
	c-14.4,0-21.9-7.4-21.9-21.9c0-14.9,10.7-22.3,31.8-22.3c9.1,0,17.3,1.2,25.6,4.1v14.9c-7.8-3.3-16.5-5-26-5
	c-9.9,0-14.4,2.5-14.4,7.4c0,4.5,2.9,7,8.7,7h11.6c15.7,0,23.9,7.4,23.9,21.9c0,14.9-10.3,22.3-30.5,22.3
	C41.9,346.1,33.3,344.4,25,341.9 M94.7,345.2v-71.4h14l2.1,9.1c8.3-6.2,16.5-9.1,24.3-9.1c9.1,0,15.3,3.3,19,9.9
	c9.1-6.6,17.7-9.9,25.6-9.9c15.3,0,22.7,9.1,22.7,27.2v44.2h-18.2v-45c0-7.8-3.3-12-9.9-12c-5.4,0-11.1,2.9-16.9,9.1v47.9h-18.2v-45
	c0-8.3-3.3-12-9.9-12c-5.8,0-11.6,2.9-16.9,9.1v47.9C112.5,345.2,94.7,345.2,94.7,345.2z M216.1,323c0-14.9,10.3-21.9,30.9-21.9
	c6.2,0,12,0.4,16.5,1.2v-4.5c0-6.2-6.2-9.5-18.6-9.5c-7.8,0-15.7,1.2-23.1,3.3v-14.4c7.8-2.1,15.7-3.3,23.1-3.3
	c24.3,0,36.7,7.8,36.7,23.5v47.9h-9.1l-7.8-5c-6.2,3.3-12.8,5-19.8,5C225.6,345.2,216.1,337.8,216.1,323z M263.5,315.9
	c-4.5-0.8-9.9-1.2-16.5-1.2c-8.7,0-13.2,2.9-13.2,8.3s3.7,8.3,10.7,8.3c7.4,0,13.6-2.1,18.6-5.8v-9.5H263.5z M299.4,345.2v-71.4h14
	l2.1,9.1c6.2-6.2,12.8-9.1,19.8-9.1v14.4c-6.6,0-12.8,2.9-18.2,9.1v47.9H299.4z M346.5,262.3h13.2l2.9,11.6h16.5v14.4h-14.4v33
	c0,6.6,2.9,9.9,8.7,9.9h5.8v14.4h-14.9c-12,0-18.2-6.6-18.2-19.4v-64H346.5z"/>
</svg>
